#!OML:ASF E:\motion texture\Top Level 1\Subject 1\Session 1\male.ASF
:FULLY-SPECIFIED
:DEGREES
239
root -1.80302 18.1488 3.39955 463.174 -76.8316 -466.234
lowerback 5.91353 3.21504 12.6839
upperback -0.386027 5.14834 4.05339
thorax -2.99576 2.30171 -3.20759
lowerneck -15.3388 -5.31026 -6.49132
upperneck 12.7938 -7.0077 7.38855
head 6.92158 -3.08652 2.69925
rclavicle 4.04092e-014 -2.60408e-014
rhumerus 12.7382 21.7765 -75.092
rradius 86.4797
rwrist -7.53557
rhand -10.826 -5.91106
rfingers 7.12502
rthumb 15.1882 -35.3336
lclavicle 4.04092e-014 -2.60408e-014
lhumerus -59.373 -10.903 77.2889
lradius 46.2888
lwrist 0.796868
lhand -3.87392 5.7203
lfingers 7.12502
lthumb 21.875 34.5038
rfemur -0.441576 4.91223 39.7904
rtibia 23.5508
rfoot 169.582 175.028
rtoes 13.7091
lfemur -80.4319 5.72213 -7.04385
ltibia 59.9648
lfoot 547.147 10.6637
ltoes -0.95688
240
root -1.9469 18.1762 3.39524 462.076 -76.9078 -465.341
lowerback 6.04883 3.26143 12.6065
upperback -0.371123 5.22793 4.00504
thorax -3.0469 2.34126 -3.22998
lowerneck -15.3298 -5.4687 -6.66974
upperneck 12.8225 -7.1938 7.43305
head 6.95117 -3.18061 2.72089
rclavicle -1.51387e-014 4.87022e-015
rhumerus 13.3123 21.528 -74.6366
rradius 86.2762
rwrist -7.43496
rhand -10.9044 -5.89549
rfingers 7.12502
rthumb 15.1126 -35.3238
lclavicle -1.51387e-014 4.87022e-015
lhumerus -59.6296 -10.605 76.5537
lradius 46.4228
lwrist 0.999058
lhand -3.85491 5.88891
lfingers 7.12502
lthumb 21.8933 34.6702
rfemur 0.352131 4.85209 39.7748
rtibia 23.3234
rfoot 169.786 175.063
rtoes 12.9018
lfemur -81.895 5.21908 -7.20291
ltibia 60.3638
lfoot 547.222 10.7148
ltoes -0.896361
241
root -2.09055 18.2008 3.39103 460.972 -76.9921 -464.437
lowerback 6.17173 3.29534 12.5081
upperback -0.344719 5.2859 3.9613
thorax -3.08417 2.37171 -3.23401
lowerneck -15.3506 -5.61038 -6.80268
upperneck 12.8621 -7.35695 7.42579
head 6.98423 -3.26487 2.72026
rclavicle 1.40112e-014 -5.27773e-014
rhumerus 13.7545 21.2816 -74.2832
rradius 86.1191
rwrist -7.36732
rhand -10.9616 -5.88679
rfingers 7.12502
rthumb 15.0575 -35.3192
lclavicle 1.40112e-014 -5.27773e-014
lhumerus -59.8271 -10.299 75.8854
lradius 46.5168
lwrist 1.17221
lhand -3.85609 5.98665
lfingers 7.12502
lthumb 21.8921 34.7681
rfemur 1.1155 4.79576 39.7454
rtibia 23.1426
rfoot 169.995 175.125
rtoes 12.0539
lfemur -83.172 4.72706 -7.35981
ltibia 60.8827
lfoot 547.264 10.7838
ltoes -0.891369
242
root -2.23413 18.2227 3.38681 459.877 -77.0676 -463.536
lowerback 6.27492 3.32239 12.4051
upperback -0.306383 5.32936 3.92588
thorax -3.10094 2.39654 -3.22436
lowerneck -15.3923 -5.73665 -6.89566
upperneck 12.9015 -7.49986 7.38065
head 7.01639 -3.34006 2.70264
rclavicle 1.47737e-014 5.61567e-014
rhumerus 14.0643 21.0273 -74.027
rradius 86.0114
rwrist -7.29093
rhand -10.9825 -5.86883
rfingers 7.12502
rthumb 15.0373 -35.3028
lclavicle 1.47737e-014 5.61567e-014
lhumerus -59.9603 -9.99363 75.2939
lradius 46.5634
lwrist 1.317
lhand -3.89031 5.99749
lfingers 7.12502
lthumb 21.8593 34.7828
rfemur 1.8447 4.75341 39.727
rtibia 23.0103
rfoot 170.206 175.197
rtoes 11.1207
lfemur -84.2649 4.26311 -7.50175
ltibia 61.507
lfoot 547.265 10.8686
ltoes -0.978964
243
root -2.37792 18.2418 3.38273 458.827 -77.1304 -462.669
lowerback 6.35522 3.3462 12.3039
upperback -0.25624 5.3631 3.89964
thorax -3.09442 2.41809 -3.20338
lowerneck -15.4457 -5.84845 -6.96214
upperneck 12.9345 -7.62345 7.3124
head 7.04507 -3.40636 2.67513
rclavicle 1.66824e-014 1.53064e-014
rhumerus 14.2463 20.7714 -73.8554
rradius 85.9541
rwrist -7.18853
rhand -10.9652 -5.83219
rfingers 7.12502
rthumb 15.054 -35.2649
lclavicle 1.66824e-014 1.53064e-014
lhumerus -60.0349 -9.6902 74.7877
lradius 46.5694
lwrist 1.4378
lhand -3.95257 5.92441
lfingers 7.12502
lthumb 21.7995 34.7167
rfemur 2.54207 4.72944 39.7242
rtibia 22.921
rfoot 170.418 175.275
rtoes 10.1372
lfemur -85.1712 3.83775 -7.62381
ltibia 62.2313
lfoot 547.242 10.9724
ltoes -1.0899
244
root -2.52162 18.2581 3.37872 457.854 -77.1728 -461.862
lowerback 6.4067 3.37274 12.2161
upperback -0.197835 5.39536 3.88042
thorax -3.06264 2.44015 -3.17976
lowerneck -15.4931 -5.94686 -7.01733
upperneck 12.9454 -7.73121 7.2507
head 7.06418 -3.46432 2.64992
rclavicle 3.5935e-014 4.34841e-014
rhumerus 14.3084 20.504 -73.7649
rradius 85.9395
rwrist -7.05989
rhand -10.907 -5.7891
rfingers 7.12502
rthumb 15.1101 -35.2176
lclavicle 3.5935e-014 4.34841e-014
lhumerus -60.0505 -9.40771 74.3751
lradius 46.5439
lwrist 1.55439
lhand -4.03035 5.77643
lfingers 7.12502
lthumb 21.7248 34.5774
rfemur 3.1963 4.73042 39.7492
rtibia 22.8791
rfoot 170.624 175.347
rtoes 9.12229
lfemur -85.9028 3.46401 -7.72119
ltibia 63.0475
lfoot 547.221 11.0961
ltoes -1.17868
245
root -2.66519 18.2717 3.37474 456.981 -77.1918 -461.131
lowerback 6.43257 3.40385 12.1439
upperback -0.139042 5.43026 3.869
thorax -3.01511 2.46391 -3.15455
lowerneck -15.5299 -6.03349 -7.06999
upperneck 12.9403 -7.82613 7.20638
head 7.07603 -3.51495 2.6317
rclavicle -1.42644e-014 -4.12478e-015
rhumerus 14.2599 20.2412 -73.7359
rradius 85.961
rwrist -6.93185
rhand -10.8316 -5.75805
rfingers 7.12502
rthumb 15.1827 -35.181
lclavicle -1.42644e-014 -4.12478e-015
lhumerus -60.0357 -9.16245 74.0663
lradius 46.5194
lwrist 1.68126
lhand -4.09289 5.62014
lfingers 7.12502
lthumb 21.6648 34.428
rfemur 3.8044 4.75661 39.8063
rtibia 22.8757
rfoot 170.821 175.406
rtoes 8.13792
lfemur -86.471 3.1505 -7.7943
ltibia 63.9405
lfoot 547.2 11.2372
ltoes -1.27597
246
root -2.80828 18.2828 3.37074 456.241 -77.1812 -460.499
lowerback 6.43225 3.44226 12.0945
upperback -0.0875353 5.47274 3.864
thorax -2.95817 2.49108 -3.13361
lowerneck -15.5472 -6.10934 -7.13057
upperneck 12.9152 -7.91077 7.1971
head 7.07919 -3.55879 2.62785
rclavicle 2.41026e-014 1.23992e-014
rhumerus 14.1129 19.9859 -73.7654
rradius 86.0018
rwrist -6.82607
rhand -10.7525 -5.73268
rfingers 7.12502
rthumb 15.2589 -35.1499
lclavicle 2.41026e-014 1.23992e-014
lhumerus -59.9835 -8.96456 73.8624
lradius 46.4898
lwrist 1.82941
lhand -4.13048 5.4937
lfingers 7.12502
lthumb 21.6287 34.3057
rfemur 4.34913 4.79667 39.8977
rtibia 22.9201
rfoot 170.999 175.456
rtoes 7.23305
lfemur -86.8899 2.90514 -7.83817
ltibia 64.9091
lfoot 547.194 11.388
ltoes -1.37114
247
root -2.95077 18.2915 3.36672 455.623 -77.1453 -459.949
lowerback 6.40114 3.48565 12.0658
upperback -0.0465943 5.51931 3.86177
thorax -2.89305 2.5199 -3.11913
lowerneck -15.5449 -6.17289 -7.19666
upperneck 12.8706 -7.98511 7.23049
head 7.07413 -3.59507 2.64051
rclavicle -3.50921e-014 -4.09621e-014
rhumerus 13.8863 19.7452 -73.8501
rradius 86.0444
rwrist -6.75573
rhand -10.7007 -5.72336
rfingers 7.12502
rthumb 15.3088 -35.1368
lclavicle -3.50921e-014 -4.09621e-014
lhumerus -59.9144 -8.82104 73.7556
lradius 46.4886
lwrist 1.99379
lhand -4.12079 5.42305
lfingers 7.12502
lthumb 21.638 34.234
rfemur 4.82948 4.83485 40.0149
rtibia 22.999
rfoot 171.157 175.497
rtoes 6.42736
lfemur -87.1694 2.72332 -7.85576
ltibia 65.9509
lfoot 547.208 11.5453
ltoes -1.45461
248
root -3.09275 18.2982 3.36333 455.131 -77.099 -459.469
lowerback 6.33369 3.53341 12.054
upperback -0.0223056 5.56877 3.85456
thorax -2.82275 2.54964 -3.11684
lowerneck -15.5602 -6.23549 -7.24409
upperneck 12.8397 -8.06204 7.2629
head 7.07593 -3.63128 2.64906
rclavicle 2.94131e-014 2.98884e-014
rhumerus 13.5905 19.5157 -73.9929
rradius 86.0691
rwrist -6.71264
rhand -10.6643 -5.72635
rfingers 7.12502
rthumb 15.3438 -35.1371
lclavicle 2.94131e-014 2.98884e-014
lhumerus -59.8122 -8.72367 73.7359
lradius 46.4867
lwrist 2.15095
lhand -4.07488 5.39287
lfingers 7.12502
lthumb 21.682 34.1987
rfemur 5.24428 4.852 40.1319
rtibia 23.0906
rfoot 171.291 175.537
rtoes 5.68163
lfemur -87.3264 2.59393 -7.86414
ltibia 67.0679
lfoot 547.25 11.7013
ltoes -1.54086
249
root -3.23459 18.3027 3.35979 454.748 -77.0422 -459.044
lowerback 6.2217 3.57915 12.0487
upperback -0.0141191 5.61065 3.84292
thorax -2.74449 2.57553 -3.1193
lowerneck -15.5764 -6.28647 -7.28108
upperneck 12.8129 -8.13008 7.3188
head 7.07928 -3.66078 2.66462
rclavicle 5.3119e-014 -2.56432e-014
rhumerus 13.2478 19.3224 -74.1888
rradius 86.0659
rwrist -6.69685
rhand -10.6557 -5.73643
rfingers 7.12502
rthumb 15.3522 -35.1465
lclavicle 5.3119e-014 -2.56432e-014
lhumerus -59.691 -8.66295 73.7892
lradius 46.4896
lwrist 2.28236
lhand -4.02977 5.39007
lfingers 7.12502
lthumb 21.7254 34.1909
rfemur 5.59615 4.85096 40.2528
rtibia 23.194
rfoot 171.401 175.563
rtoes 4.98685
lfemur -87.3636 2.51975 -7.85934
ltibia 68.2581
lfoot 547.329 11.863
ltoes -1.62199
250
root -3.37631 18.305 3.3562 454.466 -76.9829 -458.663
lowerback 6.06467 3.62126 12.0429
upperback -0.0238251 5.64253 3.82424
thorax -2.66058 2.59636 -3.12539
lowerneck -15.5854 -6.32353 -7.30732
upperneck 12.7816 -8.18607 7.39804
head 7.07972 -3.68234 2.68768
rclavicle 6.37656e-014 -3.35201e-014
rhumerus 12.8653 19.1653 -74.4408
rradius 86.026
rwrist -6.69986
rhand -10.6554 -5.75022
rfingers 7.12502
rthumb 15.3524 -35.1603
lclavicle 6.37656e-014 -3.35201e-014
lhumerus -59.5548 -8.62951 73.9044
lradius 46.4916
lwrist 2.36333
lhand -4.00112 5.38605
lfingers 7.12502
lthumb 21.7529 34.1837
rfemur 5.89195 4.83296 40.3683
rtibia 23.2968
rfoot 171.486 175.574
rtoes 4.31018
lfemur -87.2885 2.49569 -7.84802
ltibia 69.5204
lfoot 547.459 12.0464
ltoes -1.68931
251
root -3.51767 18.3051 3.35326 454.279 -76.9341 -458.315
lowerback 5.86218 3.65907 12.0344
upperback -0.052834 5.66354 3.79378
thorax -2.5721 2.61167 -3.13886
lowerneck -15.6154 -6.35516 -7.32184
upperneck 12.7692 -8.23806 7.4817
head 7.08936 -3.70043 2.71021
rclavicle 4.06647e-014 1.03865e-014
rhumerus 12.4504 19.0414 -74.7404
rradius 85.9445
rwrist -6.7199
rhand -10.6393 -5.7676
rfingers 7.12502
rthumb 15.368 -35.1765
lclavicle 4.06647e-014 1.03865e-014
lhumerus -59.4126 -8.62245 74.0792
lradius 46.5044
lwrist 2.40336
lhand -3.99331 5.36551
lfingers 7.12502
lthumb 21.7604 34.1623
rfemur 6.13408 4.79974 40.4591
rtibia 23.3819
rfoot 171.544 175.58
rtoes 3.66587
lfemur -87.1112 2.50922 -7.84106
ltibia 70.857
lfoot 547.651 12.2784
ltoes -1.74707
252
root -3.65883 18.3028 3.35071 454.213 -76.9019 -458.033
lowerback 5.62062 3.69565 12.0141
upperback -0.0985549 5.67804 3.75079
thorax -2.48004 2.62382 -3.15626
lowerneck -15.6555 -6.37873 -7.31285
upperneck 12.7667 -8.28261 7.55442
head 7.10193 -3.71442 2.72605
rclavicle -7.36746e-015 9.19379e-015
rhumerus 12.006 18.9482 -75.0817
rradius 85.8196
rwrist -6.74653
rhand -10.599 -5.78121
rfingers 7.12502
rthumb 15.4068 -35.1871
lclavicle -7.36746e-015 9.19379e-015
lhumerus -59.2574 -8.6358 74.3054
lradius 46.5139
lwrist 2.40907
lhand -4.01548 5.3186
lfingers 7.12502
lthumb 21.7391 34.1179
rfemur 6.3335 4.77052 40.5228
rtibia 23.4527
rfoot 171.572 175.578
rtoes 3.05309
lfemur -86.8253 2.56659 -7.84211
ltibia 72.2708
lfoot 547.921 12.6008
ltoes -1.75102
253
root -3.79958 18.2982 3.34844 454.285 -76.886 -457.846
lowerback 5.35371 3.73178 11.98
upperback -0.158595 5.68891 3.69899
thorax -2.38973 2.63392 -3.1737
lowerneck -15.7089 -6.39601 -7.26546
upperneck 12.7726 -8.31944 7.58435
head 7.11523 -3.72601 2.72242
rclavicle -3.56415e-015 -5.52621e-014
rhumerus 11.5366 18.8895 -75.4529
rradius 85.6568
rwrist -6.77478
rhand -10.5314 -5.79884
rfingers 7.12502
rthumb 15.4719 -35.1997
lclavicle -3.56415e-015 -5.52621e-014
lhumerus -59.0992 -8.66434 74.5805
lradius 46.5356
lwrist 2.40384
lhand -4.05114 5.26237
lfingers 7.12502
lthumb 21.7048 34.0656
rfemur 6.50417 4.76484 40.5641
rtibia 23.5002
rfoot 171.572 175.568
rtoes 2.47498
lfemur -86.4259 2.67461 -7.84905
ltibia 73.7662
lfoot 548.274 13.0498
ltoes -1.72715
